During a violent thunderstorm, a family is awoken by piercing shrieks which summon the dead to rise again. Their lives explode in a blood soaked fury as they battle malevolent spirits, whilst fighting to save their souls from eternal torment with... the Banshee..
 
http://www.imdb.com/title/tt1442492/

Subtitles: Dutch (srt).

Covers: Yes

Tijdens een gewelddadige storm, wordt een familie gewekt door een hels geluid. Dat geluid roept de doden op om op te staan. De familie moet een wervelstorm aan geesten en banshee's weerstaan om hun zielen te behoeden voor eeuwige kwelling..
 
http://www.moviemeter.nl/film/66843

Ondertitels: Nederlands (srt).

Hoesjes: Ja

General
Complete name                    : Damned By Dawn-AC3-XviD-BRRip[Eng]2009 TBS\Damned By Dawn-AC3-XviD-BRRip[Eng]2009.avi
Format                           : AVI
Format/Info                      : Audio Video Interleave
File size                        : 1.12 GiB
Duration                         : 1h 24mn
Overall bit rate                 : 1 892 Kbps
Writing application              : VirtualDubMod 1.5.4.1 (build 2178/release)
Writing library                  : VirtualDubMod build 2178/release
Source                           : Damned.By.Dawn.2009.720p.BluRay.x264-CiNEFiLE 

Video
ID                               : 0
Format                           : MPEG-4 Visual
Format profile                   : Simple@L3
Format settings, BVOP            : No
Format settings, QPel            : No
Format settings, GMC             : No warppoints
Format settings, Matrix          : Default (H.263)
Codec ID                         : XVID
Codec ID/Hint                    : XviD
Duration                         : 1h 24mn
Bit rate                         : 1 434 Kbps
Width                            : 720 pixels
Height                           : 400 pixels
Display aspect ratio             : 16:9
Frame rate                       : 23.976 fps
Resolution                       : 8 bits
Colorimetry                      : 4:2:0
Scan type                        : Progressive
Bits/(Pixel*Frame)               : 0.208
Stream size                      : 867 MiB (76%)
Writing library                  : XviD 1.1.2 (UTC 2006-11-01)

Audio
ID                               : 1
Format                           : AC-3
Format/Info                      : Audio Coding 3
Codec ID                         : 2000
Duration                         : 1h 24mn
Bit rate mode                    : Constant
Bit rate                         : 448 Kbps
Channel(s)                       : 6 channels
Channel positions                : Front: L C R, Surround: L R, LFE
Sampling rate                    : 48.0 KHz
Stream size                      : 271 MiB (24%)
Alignment                        : Split accross interleaves
Interleave, duration             : 42 ms (1.00 video frame)
Interleave, preload duration     : 500 ms

Blackbeard  TBS.